<?xml version="1.0" encoding="UTF-8" standalone="no"?><!DOCTYPE svg PUBLIC "-//W3C//DTD SVG 1.1//EN" "http://www.w3.org/Graphics/SVG/1.1/DTD/svg11.dtd"><svg width="100%" height="100%" viewBox="0 0 75 28" version="1.1" xmlns="http://www.w3.org/2000/svg" xmlns:xlink="http://www.w3.org/1999/xlink" xml:space="preserve" xmlns:serif="http://www.serif.com/" style="fill-rule:evenodd;clip-rule:evenodd;stroke-linejoin:round;stroke-miterlimit:2;"><rect id="ArtBoard1" x="0" y="0" width="74.314" height="27.62" style="fill:none;"/><g><path d="M17.985,11.977l-0,-4.235l1.387,-0c0.623,-0 1.112,0.088 1.466,0.263c0.353,0.176 0.53,0.482 0.53,0.919c0,0.416 -0.174,0.725 -0.522,0.929c-0.348,0.203 -0.828,0.305 -1.441,0.305l-1.036,-0l0,1.819l-0.384,-0Zm0.384,-2.07l0.944,0c0.563,0 0.98,-0.077 1.253,-0.231c0.273,-0.154 0.41,-0.405 0.41,-0.752c-0,-0.355 -0.141,-0.6 -0.422,-0.732c-0.281,-0.133 -0.706,-0.2 -1.274,-0.2l-0.911,0l0,1.915Z" style="fill-rule:nonzero;"/><path d="M24.484,12.054c-0.44,-0 -0.829,-0.091 -1.169,-0.273c-0.34,-0.182 -0.607,-0.438 -0.802,-0.768c-0.195,-0.33 -0.293,-0.72 -0.293,-1.17c0,-0.445 0.098,-0.831 0.293,-1.157c0.195,-0.325 0.462,-0.577 0.802,-0.755c0.34,-0.177 0.729,-0.266 1.169,-0.266c0.446,-0 0.839,0.089 1.178,0.266c0.34,0.178 0.607,0.43 0.802,0.755c0.195,0.326 0.293,0.712 0.293,1.157c-0,0.45 -0.098,0.84 -0.293,1.17c-0.195,0.33 -0.462,0.586 -0.802,0.768c-0.339,0.182 -0.732,0.273 -1.178,0.273Zm0,-0.27c0.373,-0 0.699,-0.081 0.978,-0.241c0.278,-0.161 0.495,-0.387 0.651,-0.678c0.156,-0.291 0.234,-0.632 0.234,-1.022c0,-0.39 -0.078,-0.727 -0.234,-1.012c-0.156,-0.285 -0.373,-0.506 -0.651,-0.662c-0.279,-0.156 -0.605,-0.234 -0.978,-0.234c-0.373,-0 -0.699,0.078 -0.977,0.234c-0.279,0.156 -0.496,0.377 -0.652,0.662c-0.156,0.285 -0.234,0.622 -0.234,1.012c0,0.39 0.078,0.731 0.234,1.022c0.156,0.291 0.373,0.517 0.652,0.678c0.278,0.16 0.604,0.241 0.977,0.241Z" style="fill-rule:nonzero;"/><path d="M28.018,11.977l0,-4.235l1.579,-0c0.546,-0 0.983,0.084 1.312,0.254c0.328,0.169 0.492,0.457 0.492,0.864c0,0.338 -0.126,0.604 -0.38,0.797c-0.253,0.193 -0.597,0.31 -1.031,0.353l1.52,1.967l-0.443,-0l-1.495,-1.948l-1.17,0l0,1.948l-0.384,-0Zm0.384,-2.192l1.095,0c0.484,0 0.857,-0.076 1.119,-0.228c0.262,-0.152 0.393,-0.384 0.393,-0.697c-0,-0.317 -0.131,-0.541 -0.393,-0.672c-0.262,-0.13 -0.635,-0.196 -1.119,-0.196l-1.095,0l0,1.793Z" style="fill-rule:nonzero;"/><path d="M33.678,11.977l0,-3.978l-1.754,-0l-0,-0.257l3.893,-0l-0,0.257l-1.754,-0l-0,3.978l-0.385,-0Z" style="fill-rule:nonzero;"/><path d="M36.87,11.977l-0,-4.235l2.999,-0l-0,0.257l-2.615,-0l-0,1.683l2.214,0l-0,0.257l-2.214,0l-0,2.038l-0.384,-0Z" style="fill-rule:nonzero;"/><path d="M42.703,12.054c-0.44,-0 -0.83,-0.091 -1.169,-0.273c-0.34,-0.182 -0.607,-0.438 -0.802,-0.768c-0.195,-0.33 -0.293,-0.72 -0.293,-1.17c0,-0.445 0.098,-0.831 0.293,-1.157c0.195,-0.325 0.462,-0.577 0.802,-0.755c0.339,-0.177 0.729,-0.266 1.169,-0.266c0.446,-0 0.838,0.089 1.178,0.266c0.34,0.178 0.607,0.43 0.802,0.755c0.195,0.326 0.293,0.712 0.293,1.157c-0,0.45 -0.098,0.84 -0.293,1.17c-0.195,0.33 -0.462,0.586 -0.802,0.768c-0.34,0.182 -0.732,0.273 -1.178,0.273Zm0,-0.27c0.373,-0 0.699,-0.081 0.978,-0.241c0.278,-0.161 0.495,-0.387 0.651,-0.678c0.156,-0.291 0.234,-0.632 0.234,-1.022c0,-0.39 -0.078,-0.727 -0.234,-1.012c-0.156,-0.285 -0.373,-0.506 -0.651,-0.662c-0.279,-0.156 -0.605,-0.234 -0.978,-0.234c-0.373,-0 -0.699,0.078 -0.977,0.234c-0.279,0.156 -0.496,0.377 -0.652,0.662c-0.156,0.285 -0.234,0.622 -0.234,1.012c0,0.39 0.078,0.731 0.234,1.022c0.156,0.291 0.373,0.517 0.652,0.678c0.278,0.16 0.604,0.241 0.977,0.241Z" style="fill-rule:nonzero;"/><path d="M46.237,11.977l-0,-4.235l0.384,-0l0,3.978l2.54,-0l-0,0.257l-2.924,-0Z" style="fill-rule:nonzero;"/><rect x="50.138" y="7.742" width="0.384" height="4.235" style="fill-rule:nonzero;"/><path d="M54.056,12.054c-0.44,-0 -0.83,-0.091 -1.169,-0.273c-0.34,-0.182 -0.607,-0.438 -0.802,-0.768c-0.195,-0.33 -0.293,-0.72 -0.293,-1.17c0,-0.445 0.098,-0.831 0.293,-1.157c0.195,-0.325 0.462,-0.577 0.802,-0.755c0.339,-0.177 0.729,-0.266 1.169,-0.266c0.446,-0 0.839,0.089 1.178,0.266c0.34,0.178 0.607,0.43 0.802,0.755c0.195,0.326 0.293,0.712 0.293,1.157c-0,0.45 -0.098,0.84 -0.293,1.17c-0.195,0.33 -0.462,0.586 -0.802,0.768c-0.339,0.182 -0.732,0.273 -1.178,0.273Zm0,-0.27c0.373,-0 0.699,-0.081 0.978,-0.241c0.278,-0.161 0.495,-0.387 0.651,-0.678c0.156,-0.291 0.234,-0.632 0.234,-1.022c0,-0.39 -0.078,-0.727 -0.234,-1.012c-0.156,-0.285 -0.373,-0.506 -0.651,-0.662c-0.279,-0.156 -0.605,-0.234 -0.978,-0.234c-0.373,-0 -0.699,0.078 -0.977,0.234c-0.279,0.156 -0.496,0.377 -0.652,0.662c-0.156,0.285 -0.234,0.622 -0.234,1.012c0,0.39 0.078,0.731 0.234,1.022c0.156,0.291 0.373,0.517 0.652,0.678c0.278,0.16 0.604,0.241 0.977,0.241Z" style="fill-rule:nonzero;"/><path d="M4.49,19.878l0,-4.19l0.992,0l-0,1.716l0.027,0l1.309,-1.716l1.093,0l-1.329,1.671l1.572,2.519l-1.086,0l-1.073,-1.767l-0.513,0.643l-0,1.124l-0.992,0Z" style="fill-rule:nonzero;"/><rect x="8.633" y="15.688" width="0.992" height="4.19" style="fill-rule:nonzero;"/><path d="M10.664,19.878l0,-4.19l1.586,0c0.31,0 0.593,0.04 0.85,0.119c0.256,0.079 0.461,0.213 0.614,0.402c0.153,0.188 0.229,0.45 0.229,0.784c0,0.308 -0.071,0.562 -0.212,0.761c-0.142,0.199 -0.332,0.348 -0.57,0.447l0.998,1.677l-1.113,0l-0.844,-1.51l-0.546,-0l-0,1.51l-0.992,0Zm0.992,-2.262l0.513,0c0.261,0 0.46,-0.052 0.597,-0.157c0.137,-0.105 0.206,-0.261 0.206,-0.466c-0,-0.206 -0.069,-0.349 -0.206,-0.431c-0.137,-0.081 -0.336,-0.122 -0.597,-0.122l-0.513,0l-0,1.176Z" style="fill-rule:nonzero;"/><path d="M16.053,19.955c-0.288,0 -0.575,-0.051 -0.86,-0.154c-0.286,-0.103 -0.541,-0.253 -0.766,-0.45l0.567,-0.649c0.157,0.129 0.333,0.234 0.526,0.315c0.193,0.081 0.38,0.122 0.56,0.122c0.207,0 0.361,-0.036 0.462,-0.109c0.101,-0.073 0.152,-0.171 0.152,-0.296c0,-0.133 -0.057,-0.23 -0.172,-0.292c-0.115,-0.062 -0.269,-0.132 -0.462,-0.209l-0.574,-0.231c-0.148,-0.06 -0.29,-0.141 -0.425,-0.241c-0.135,-0.101 -0.245,-0.226 -0.33,-0.376c-0.086,-0.15 -0.129,-0.326 -0.129,-0.527c0,-0.232 0.067,-0.441 0.199,-0.63c0.133,-0.188 0.318,-0.338 0.554,-0.45c0.236,-0.111 0.507,-0.167 0.813,-0.167c0.252,0 0.504,0.047 0.755,0.142c0.252,0.094 0.473,0.231 0.662,0.411l-0.506,0.597c-0.144,-0.107 -0.288,-0.189 -0.432,-0.247c-0.144,-0.058 -0.304,-0.087 -0.479,-0.087c-0.171,0 -0.307,0.033 -0.408,0.1c-0.102,0.066 -0.152,0.159 -0.152,0.279c-0,0.129 0.064,0.225 0.192,0.29c0.128,0.064 0.287,0.132 0.476,0.205l0.567,0.219c0.265,0.103 0.476,0.244 0.634,0.424c0.157,0.18 0.236,0.418 0.236,0.713c-0,0.231 -0.065,0.446 -0.196,0.643c-0.13,0.197 -0.319,0.355 -0.567,0.475c-0.247,0.12 -0.546,0.18 -0.897,0.18Z" style="fill-rule:nonzero;"/><path d="M19.19,19.878l0,-3.393l-1.207,0l-0,-0.797l3.414,0l-0,0.797l-1.208,0l-0,3.393l-0.999,0Z" style="fill-rule:nonzero;"/><path d="M22.085,19.878l-0,-4.19l2.753,0l-0,0.797l-1.761,0l-0,0.842l1.498,-0l-0,0.79l-1.498,0l-0,0.964l1.828,0l0,0.797l-2.82,0Z" style="fill-rule:nonzero;"/><path d="M25.783,19.878l-0,-4.19l1.018,0l1.148,2.082l0.431,0.926l0.027,-0c-0.018,-0.223 -0.042,-0.472 -0.074,-0.746c-0.031,-0.274 -0.047,-0.535 -0.047,-0.784l-0,-1.478l0.945,0l-0,4.19l-1.019,0l-1.147,-2.088l-0.432,-0.913l-0.027,0c0.022,0.231 0.048,0.48 0.077,0.746c0.03,0.265 0.044,0.522 0.044,0.771l0,1.484l-0.944,0Z" style="fill-rule:nonzero;"/><path d="M32.962,19.955c-0.288,0 -0.575,-0.051 -0.86,-0.154c-0.286,-0.103 -0.541,-0.253 -0.766,-0.45l0.567,-0.649c0.157,0.129 0.332,0.234 0.526,0.315c0.193,0.081 0.38,0.122 0.56,0.122c0.207,0 0.361,-0.036 0.462,-0.109c0.101,-0.073 0.152,-0.171 0.152,-0.296c-0,-0.133 -0.057,-0.23 -0.172,-0.292c-0.115,-0.062 -0.269,-0.132 -0.462,-0.209l-0.574,-0.231c-0.148,-0.06 -0.29,-0.141 -0.425,-0.241c-0.135,-0.101 -0.245,-0.226 -0.331,-0.376c-0.085,-0.15 -0.128,-0.326 -0.128,-0.527c0,-0.232 0.067,-0.441 0.199,-0.63c0.133,-0.188 0.317,-0.338 0.554,-0.45c0.236,-0.111 0.507,-0.167 0.813,-0.167c0.252,0 0.503,0.047 0.755,0.142c0.252,0.094 0.473,0.231 0.662,0.411l-0.506,0.597c-0.144,-0.107 -0.288,-0.189 -0.432,-0.247c-0.144,-0.058 -0.304,-0.087 -0.479,-0.087c-0.171,0 -0.307,0.033 -0.409,0.1c-0.101,0.066 -0.151,0.159 -0.151,0.279c-0,0.129 0.064,0.225 0.192,0.29c0.128,0.064 0.287,0.132 0.476,0.205l0.566,0.219c0.266,0.103 0.477,0.244 0.635,0.424c0.157,0.18 0.236,0.418 0.236,0.713c-0,0.231 -0.065,0.446 -0.196,0.643c-0.13,0.197 -0.319,0.355 -0.567,0.475c-0.247,0.12 -0.546,0.18 -0.897,0.18Z" style="fill-rule:nonzero;"/><path d="M37.206,19.955c-0.369,0 -0.708,-0.081 -1.019,-0.244c-0.31,-0.163 -0.559,-0.404 -0.745,-0.723c-0.187,-0.319 -0.28,-0.712 -0.28,-1.179c-0,-0.463 0.095,-0.858 0.286,-1.186c0.192,-0.327 0.446,-0.578 0.763,-0.752c0.317,-0.173 0.66,-0.26 1.029,-0.26c0.283,0 0.537,0.055 0.762,0.164c0.225,0.109 0.412,0.237 0.56,0.382l-0.526,0.604c-0.112,-0.098 -0.231,-0.178 -0.354,-0.241c-0.124,-0.062 -0.264,-0.093 -0.422,-0.093c-0.198,0 -0.379,0.054 -0.543,0.161c-0.164,0.107 -0.295,0.261 -0.391,0.463c-0.097,0.201 -0.146,0.443 -0.146,0.726c0,0.428 0.097,0.762 0.291,1.002c0.193,0.24 0.452,0.36 0.776,0.36c0.18,0 0.34,-0.038 0.482,-0.116c0.142,-0.077 0.267,-0.169 0.375,-0.276l0.526,0.591c-0.369,0.412 -0.844,0.617 -1.424,0.617Z" style="fill-rule:nonzero;"/><path d="M39.298,19.878l-0,-4.19l0.992,0l-0,1.613l1.518,0l-0,-1.613l0.999,0l-0,4.19l-0.999,0l-0,-1.748l-1.518,0l-0,1.748l-0.992,0Z" style="fill-rule:nonzero;"/><path d="M45.58,19.955c-0.572,0 -1.008,-0.16 -1.309,-0.482c-0.302,-0.321 -0.452,-0.833 -0.452,-1.536l-0,-2.249l0.998,0l0,2.346c0,0.411 0.065,0.698 0.196,0.861c0.13,0.163 0.319,0.244 0.567,0.244c0.247,0 0.438,-0.081 0.573,-0.244c0.135,-0.163 0.203,-0.45 0.203,-0.861l-0,-2.346l0.958,0l-0,2.249c-0,0.703 -0.147,1.215 -0.442,1.536c-0.295,0.322 -0.725,0.482 -1.292,0.482Z" style="fill-rule:nonzero;"/><path d="M48.333,19.878l-0,-4.19l0.992,0l-0,1.613l1.518,0l-0,-1.613l0.998,0l0,4.19l-0.998,0l-0,-1.748l-1.518,0l-0,1.748l-0.992,0Z" style="fill-rule:nonzero;"/><path d="M52.881,19.878l-0,-4.19l1.086,0l0.708,1.864c0.045,0.12 0.088,0.246 0.129,0.379c0.04,0.133 0.083,0.263 0.128,0.392l0.027,-0c0.045,-0.129 0.086,-0.259 0.125,-0.392c0.038,-0.133 0.079,-0.259 0.124,-0.379l0.695,-1.864l1.08,0l-0,4.19l-0.904,0l-0,-1.536c-0,-0.137 0.008,-0.29 0.023,-0.459c0.016,-0.169 0.034,-0.34 0.054,-0.511c0.021,-0.171 0.038,-0.324 0.051,-0.456l-0.027,-0l-0.358,0.996l-0.627,1.6l-0.547,-0l-0.627,-1.6l-0.351,-0.996l-0.027,-0c0.018,0.132 0.036,0.285 0.054,0.456c0.018,0.171 0.035,0.342 0.051,0.511c0.015,0.169 0.023,0.322 0.023,0.459l0,1.536l-0.89,0Z" style="fill-rule:nonzero;"/><path d="M59.054,17.757l-0.108,0.386l0.938,0l-0.101,-0.386c-0.058,-0.209 -0.118,-0.432 -0.179,-0.668c-0.06,-0.235 -0.12,-0.463 -0.178,-0.681l-0.027,-0c-0.054,0.223 -0.11,0.451 -0.166,0.684c-0.056,0.234 -0.116,0.456 -0.179,0.665Zm-1.592,2.121l1.377,-4.19l1.194,0l1.376,4.19l-1.052,0l-0.27,-0.996l-1.343,0l-0.27,0.996l-1.012,0Z" style="fill-rule:nonzero;"/><path d="M61.888,19.878l0,-4.19l1.019,0l1.147,2.082l0.432,0.926l0.027,-0c-0.018,-0.223 -0.043,-0.472 -0.074,-0.746c-0.032,-0.274 -0.047,-0.535 -0.047,-0.784l-0,-1.478l0.944,0l0,4.19l-1.019,0l-1.147,-2.088l-0.431,-0.913l-0.027,0c0.022,0.231 0.048,0.48 0.077,0.746c0.029,0.265 0.044,0.522 0.044,0.771l0,1.484l-0.945,0Z" style="fill-rule:nonzero;"/><path d="M66.375,19.878l0,-4.19l1.019,0l1.147,2.082l0.432,0.926l0.027,-0c-0.018,-0.223 -0.042,-0.472 -0.074,-0.746c-0.031,-0.274 -0.047,-0.535 -0.047,-0.784l-0,-1.478l0.944,0l0,4.19l-1.018,0l-1.148,-2.088l-0.431,-0.913l-0.027,0c0.022,0.231 0.048,0.48 0.077,0.746c0.03,0.265 0.044,0.522 0.044,0.771l0,1.484l-0.945,0Z" style="fill-rule:nonzero;"/></g></svg>